<?xml version="1.0" encoding="utf-8"?>
<!-- Generator: Adobe Illustrator 18.1.1, SVG Export Plug-In . SVG Version: 6.00 Build 0)  -->
<svg version="1.1" id="Layer_2" xmlns="http://www.w3.org/2000/svg" xmlns:xlink="http://www.w3.org/1999/xlink" x="0px" y="0px"
	 viewBox="0 0 437.9 439.9" enable-background="new 0 0 437.9 439.9" xml:space="preserve">
<polygon fill="#435F71" points="257.1,194.9 191.8,260.1 0.1,53.4 48.8,4.6 "/>
<path fill="none" stroke="#435F71" stroke-width="6" stroke-miterlimit="10" d="M221.6,132.1L348.7,4.3l84.9,85.4l-106,106.7
	c0,0-9.4-4.8-20.8-6.7c-11.4-1.8-26.1-2.3-26.1-2.3L221.6,132.1z"/>
<g id="XMLID_1_">
	<g>
		<polygon fill="#435F71" points="131.6,393.3 47.8,309 47.6,309.2 4.8,435.2 		"/>
	</g>
	<g>
		<path fill="none" stroke="#435F71" stroke-width="6" stroke-miterlimit="10" d="M131.6,393.3l60.5-61.1c0,0-4.3-11.7-6.2-22.8
			c-1.8-11-3.2-22.6-3.2-22.6l-54.5-58.9L47.8,309l-0.2,0.2L4.8,435.2L131.6,393.3z"/>
		<line fill="none" stroke="#435F71" stroke-width="6" stroke-miterlimit="10" x1="131.6" y1="393.3" x2="47.8" y2="309"/>
	</g>
</g>
<path fill="#435F71" d="M209.1,278.4l65.3-65.2c0,0,26.7-4.1,79.2,20.8c36.5,17.2,31.5,78.8,40,117.3s40,73.2,40,83.2
	S202.1,445.4,209.1,278.4z"/>
</svg>
