<?xml version="1.0" encoding="utf-8"?>
<!-- Generator: Adobe Illustrator 18.1.0, SVG Export Plug-In . SVG Version: 6.00 Build 0)  -->
<svg version="1.1" xmlns="http://www.w3.org/2000/svg" xmlns:xlink="http://www.w3.org/1999/xlink" x="0px" y="0px"
	 viewBox="0 0 1440 1600" enable-background="new 0 0 1440 1600" xml:space="preserve">
<g id="Layer_4" display="none">
	<rect x="-280" y="-200" display="inline" fill="#F05A28" width="2000" height="2000"/>
</g>
<g id="Layer_2">
	<g>
		<path fill="#FCC8BE" d="M948.1,7C935.9,19.2,893.3,61.8,835,120.2c565.4,565.4,0,1131.4,0,1131.4l-113.1,113.1L156.2,799L43,912.1
			L721.9,1591l226.3-226.3C948.1,1364.7,1626.6,685.5,948.1,7z"/>
		<path fill="#FCC8BE" d="M891.5,855.5L721.9,685.9l176.4-176.4c-28.2-89.4-83-182.8-176.4-276.2
			c-35.3,35.3-452.5,452.5-452.5,452.5l452.5,452.5C721.9,1138.4,834.9,1025.2,891.5,855.5z"/>
	</g>
</g>
</svg>
