<?xml version="1.0" encoding="utf-8"?>
<!-- Generator: Adobe Illustrator 18.1.1, SVG Export Plug-In . SVG Version: 6.00 Build 0)  -->
<svg version="1.1" id="googleplus-square" xmlns="http://www.w3.org/2000/svg" xmlns:xlink="http://www.w3.org/1999/xlink" x="0px"
	 y="0px" viewBox="100 0 600 600" enable-background="new 100 0 600 600" xml:space="preserve">
<rect x="100" fill="none" width="600" height="600"/>
<g>
	<path fill="#FEEBE6" d="M100,354.4l0,118.2c31.3-14.9,68.5-23.8,108.9-23.8c12.7,0,24.3-0.3,36.3-0.3
		c-15.9-15.4-28.5-34.3-28.5-57.6c0-13.8,4.4-27.1,10.6-39c-6.3,0.4-12.8,0.6-19.4,0.6c-43.6,0-80.6-14.1-107.9-37.4V354.4z"/>
	<path fill="#FEEBE6" d="M283.1,476.5c-15.9-5.1-33.3-8.1-52.1-8.3c-52.5-0.6-103.5,23.8-131.1,55.1c0,76.7,0,76.7,0,76.7
		s74.1,0,100,0h167.8c1.1-6.5,1.6-13.3,1.6-20.2c0-7.3-0.9-14.5-2.6-21.5C358,523.8,326.8,506.8,283.1,476.5z"/>
	<polygon fill="#FEEBE6" points="700,150 700,150 700,150 	"/>
	<path fill="#FEEBE6" d="M238.2,331.1c53.9,1.6,90.1-54.3,80.8-124.9C309.7,135.6,258.4,79,204.5,77.4c-53.9-1.6-90.1,52.4-80.8,123
		C133,271,184.3,329.5,238.2,331.1z"/>
	<path fill="#FEEBE6" d="M700,0c0,0-71.5,0-100,0H200c-27,0-100,0-100,0s0,0,0,102c34.2-30.1,81.7-60,130.7-60C283,42,440,42,440,42
		l-46.8,39.6h-66.4c44,16.9,67.5,68,67.5,120.5c0,44.1-24.5,82-59.1,109c-33.8,26.3-40.2,37.3-40.2,59.7c0,19.1,36.2,51.6,55.1,64.9
		c55.3,39,73.2,75.2,73.2,135.6c0,9.6-1.2,19.2-3.6,28.7H600c29,0,100,0,100,0s0-74,0-100V187.5H587.5V300H550V187.5H437.5V150H550
		V37.5h37.5V150H700v-50C700,73.6,700,0,700,0z"/>
</g>
</svg>
