<?xml version="1.0" encoding="utf-8"?>
<!-- Generator: Adobe Illustrator 18.1.1, SVG Export Plug-In . SVG Version: 6.00 Build 0)  -->
<svg version="1.1" id="linkedin" xmlns="http://www.w3.org/2000/svg" xmlns:xlink="http://www.w3.org/1999/xlink" x="0px" y="0px"
	 viewBox="100 0 600 600" enable-background="new 100 0 600 600" xml:space="preserve">
<path fill="#FEEBE6" d="M599.2,0H200.8H100v600h100.8H700V499.2V0H599.2z M325,487.5h-75V225h75V487.5z M287.5,187.5
	c-20.7,0-37.5-16.8-37.5-37.5s16.8-37.5,37.5-37.5S325,129.3,325,150S308.2,187.5,287.5,187.5z M587.5,487.5h-75v-150
	c0-20.7-16.8-37.5-37.5-37.5s-37.5,16.8-37.5,37.5v150h-75V225h75v46.6c15.5-21.2,39.1-46.6,65.6-46.6c46.6,0,84.4,42,84.4,93.7
	L587.5,487.5L587.5,487.5z"/>
</svg>
