<?xml version="1.0" encoding="utf-8"?>
<!-- Generator: Adobe Illustrator 18.1.1, SVG Export Plug-In . SVG Version: 6.00 Build 0)  -->
<svg version="1.1" id="Layer_1" xmlns="http://www.w3.org/2000/svg" xmlns:xlink="http://www.w3.org/1999/xlink" x="0px" y="0px"
	 viewBox="0 0 1440 1600" enable-background="new 0 0 1440 1600" xml:space="preserve">
<g>
	<g id="v_1_">
		<path fill="#F6503A" d="M833,1252.5c0,0,565.4-566,0-1131.4L154.2,800l565.7,565.7L833,1252.5z"/>
	</g>
	<g id="B_x5F_D_1_">
		<g opacity="0.3">
			<path fill="#FCC8BE" d="M889.5,856.5L719.9,686.9l176.4-176.4c-28.2-89.4-83-182.8-176.4-276.2
				c-35.3,35.3-452.5,452.5-452.5,452.5l452.5,452.5C719.9,1139.4,832.9,1026.2,889.5,856.5z"/>
			<g>
				<path fill="#FCC8BE" d="M878.8,1200h196C1231.4,957.4,1420.6,482.5,946.1,8C933.9,20.2,891.3,62.8,833,121.2
					C1295.7,583.9,1001.1,1047.1,878.8,1200z"/>
				<polygon fill="#FCC8BE" points="554.2,1200 154.2,800 41,913.1 327.9,1200 				"/>
			</g>
		</g>
	</g>
</g>
</svg>
