<?xml version="1.0" encoding="utf-8"?>
<!-- Generator: Adobe Illustrator 18.1.1, SVG Export Plug-In . SVG Version: 6.00 Build 0)  -->
<svg version="1.1" xmlns="http://www.w3.org/2000/svg" xmlns:xlink="http://www.w3.org/1999/xlink" x="0px" y="0px"
	 viewBox="0 0 566.9 566.9" enable-background="new 0 0 566.9 566.9" xml:space="preserve">
<g id="Layer_1">
</g>
<g id="Layer_1_copy">
</g>
<g id="Layer_1_copy_2">
</g>
<g id="Layer_1_copy_3">
	<g>
		
			<image overflow="visible" opacity="0.5" width="5607" height="3684" xlink:href="A511E237928A0D54.png"  transform="matrix(0.24 0 0 0.24 -889.2913 -156.1182)">
		</image>
		<g>
			<g>
				<defs>
					<rect id="SVGID_7_" x="-594.3" width="566.9" height="566.9"/>
				</defs>
				<clipPath id="SVGID_2_">
					<use xlink:href="#SVGID_7_"  overflow="visible"/>
				</clipPath>
				<g id="A2nlQN_11_" clip-path="url(#SVGID_2_)">
					
						<image overflow="visible" width="1816" height="1179" id="A2nlQN_12_" xlink:href="A511E237928A0D54.jpg"  transform="matrix(0.7245 0 0 0.7245 -877.2913 -138.1182)">
					</image>
				</g>
			</g>
		</g>
	</g>
</g>
<g id="Layer_1_copy_4">
	<g display="none">
		
			<image display="inline" overflow="visible" opacity="0.5" width="5607" height="3684" xlink:href="A511E237928A0D53.png"  transform="matrix(0.24 0 0 0.24 -295.2913 -156.1182)">
		</image>
		<g display="inline">
			<g>
				<defs>
					<rect id="SVGID_9_" x="-0.3" width="566.9" height="566.9"/>
				</defs>
				<clipPath id="SVGID_4_">
					<use xlink:href="#SVGID_9_"  overflow="visible"/>
				</clipPath>
				<g id="A2nlQN_17_" clip-path="url(#SVGID_4_)">
					
						<image overflow="visible" width="1816" height="1179" id="A2nlQN_18_" xlink:href="A511E237928A0D5C.jpg"  transform="matrix(0.7245 0 0 0.7245 -283.2914 -138.1182)">
					</image>
				</g>
			</g>
		</g>
	</g>
	<g id="Layer_6" display="none">
		<rect x="0" display="inline" fill="#D2ECEC" width="566.9" height="566.9"/>
	</g>
	<path fill="#59C5C9" d="M172.7,252.4v-49.1c0-4.2,0.9-7.3,2.8-9.4c1.9-2.1,4.4-3.1,7.4-3.1c3.2,0,5.7,1,7.6,3.1
		c1.9,2.1,2.8,5.2,2.8,9.4v50.2c0,5.7,0.6,10.5,1.9,14.3c1.3,3.8,3.5,6.8,6.8,8.9c3.3,2.1,7.8,3.2,13.7,3.2c8.1,0,13.8-2.1,17.1-6.4
		c3.3-4.3,5-10.8,5-19.5v-50.7c0-4.2,0.9-7.4,2.8-9.4c1.9-2.1,4.3-3.1,7.5-3.1c3.1,0,5.6,1,7.6,3.1c1.9,2.1,2.9,5.2,2.9,9.4v49.1
		c0,8-0.8,14.7-2.3,20c-1.6,5.3-4.5,10-8.8,14.1c-3.7,3.4-8,5.9-13,7.5c-4.9,1.6-10.7,2.4-17.3,2.4c-7.9,0-14.6-0.8-20.3-2.5
		c-5.7-1.7-10.3-4.3-13.9-7.9c-3.6-3.6-6.2-8.1-7.9-13.7C173.5,266.7,172.7,260.1,172.7,252.4z"/>
	<path fill="none" stroke="#CD2542" stroke-width="14" stroke-linecap="round" stroke-miterlimit="10" d="M62.3,315.8
		c0,0,18.1,0,30.3,0c54.7,0,106-59.5,63.5-59.5s-41,117.6-10.7,117.6s44.5-57.6,34.7-57.6c-9.8,0-6.4,57.6,8.3,57.6
		c14.7,0,27.4-58.5,46.4-58.5s26.4,58.5,15.6,58.5c-10.7,0,4.9-58.1,25.4-58.1s13.2,58.1,29.8,58.1s56.2-58.5,23-58.5
		s-15.1,59,21,59s22.5-58.5,55.2-58.5s67.4,58.1,25.9,58.1s-20-58.1,25.9-58.1s45.9,0,45.9,0"/>
	<path fill="#59C5C9" d="M152.8,253.1v19.6c0,2.6-0.3,4.7-0.8,6.2c-0.5,1.6-1.5,3-2.8,4.2c-1.4,1.3-3.1,2.5-5.3,3.6
		c-6.2,3.3-12.1,5.8-17.8,7.3c-5.7,1.5-11.9,2.3-18.7,2.3c-7.9,0-15-1.2-21.5-3.6c-6.5-2.4-12-5.9-16.5-10.5
		c-4.6-4.6-8-10.2-10.5-16.7s-3.7-13.9-3.7-21.9c0-7.9,1.2-15.2,3.6-21.8c2.4-6.6,5.9-12.2,10.5-16.8c4.6-4.6,10.2-8.1,16.8-10.6
		c6.6-2.4,14.1-3.7,22.4-3.7c6.9,0,13,0.9,18.3,2.8c5.3,1.8,9.6,4.1,12.9,6.9c3.3,2.8,5.8,5.7,7.5,8.8c1.7,3.1,2.5,5.9,2.5,8.3
		c0,2.6-1,4.8-2.9,6.7c-1.9,1.8-4.2,2.8-6.9,2.8c-1.5,0-2.9-0.3-4.3-1c-1.4-0.7-2.5-1.7-3.4-2.9c-2.6-4-4.7-7-6.5-9.1
		c-1.8-2-4.1-3.8-7.1-5.2c-3-1.4-6.8-2.1-11.5-2.1c-4.8,0-9.1,0.8-12.8,2.5c-3.8,1.6-7,4-9.7,7.2c-2.7,3.1-4.7,7-6.1,11.5
		c-1.4,4.6-2.1,9.6-2.1,15.1c0,12,2.8,21.2,8.3,27.7c5.5,6.5,13.2,9.7,23,9.7c4.8,0,9.3-0.6,13.5-1.9c4.2-1.3,8.5-3,12.8-5.4v-16.6
		h-16c-3.9,0-6.8-0.6-8.7-1.7c-2-1.2-3-3.1-3-5.9c0-2.3,0.8-4.2,2.5-5.6c1.6-1.5,3.9-2.2,6.7-2.2h23.5c2.9,0,5.3,0.3,7.3,0.8
		c2,0.5,3.6,1.6,4.8,3.4C152.2,246.9,152.8,249.5,152.8,253.1z"/>
	<path fill="#59C5C9" d="M281.8,283.7v-80.5c0-4.2,1-7.3,2.9-9.4c1.9-2.1,4.4-3.1,7.4-3.1c3.1,0,5.6,1,7.6,3.1
		c1.9,2.1,2.9,5.2,2.9,9.4v80.5c0,4.2-1,7.4-2.9,9.5c-1.9,2.1-4.4,3.1-7.6,3.1c-3,0-5.4-1.1-7.4-3.2
		C282.8,291.1,281.8,287.9,281.8,283.7z"/>
	<path fill="#59C5C9" d="M338.4,192.5h27c7,0,13,0.7,18,2c5,1.3,9.6,3.7,13.7,7.3c10.6,9.1,16,22.9,16,41.5c0,6.1-0.5,11.7-1.6,16.8
		c-1.1,5.1-2.7,9.6-4.9,13.7c-2.2,4.1-5.1,7.7-8.6,10.9c-2.7,2.5-5.7,4.4-9,5.9c-3.3,1.5-6.7,2.5-10.5,3.1c-3.7,0.6-8,0.9-12.6,0.9
		h-27c-3.8,0-6.6-0.6-8.5-1.7c-1.9-1.1-3.1-2.7-3.7-4.8c-0.6-2.1-0.9-4.7-0.9-8v-74.9c0-4.5,1-7.7,3-9.7
		C330.8,193.5,334,192.5,338.4,192.5z M346.5,208.8v69.3h15.7c3.4,0,6.1-0.1,8.1-0.3c2-0.2,4-0.7,6.1-1.4c2.1-0.7,3.9-1.8,5.4-3.1
		c6.9-5.9,10.4-15.9,10.4-30.2c0-10.1-1.5-17.6-4.6-22.6c-3-5-6.8-8.2-11.3-9.6c-4.5-1.4-9.8-2.1-16.2-2.1H346.5z"/>
	<path fill="#59C5C9" d="M498.6,208.4H452v25.1h42.9c3.2,0,5.5,0.7,7.1,2.1c1.6,1.4,2.3,3.3,2.3,5.6c0,2.3-0.8,4.2-2.3,5.7
		c-1.5,1.5-3.9,2.2-7.1,2.2H452v29.1h48.2c3.3,0,5.7,0.8,7.4,2.3c1.6,1.5,2.5,3.5,2.5,6c0,2.4-0.8,4.4-2.5,5.9
		c-1.7,1.5-4.1,2.3-7.4,2.3h-56.2c-4.5,0-7.7-1-9.7-3c-2-2-3-5.2-3-9.7v-76.8c0-3,0.4-5.4,1.3-7.3c0.9-1.9,2.3-3.3,4.1-4.1
		c1.9-0.9,4.3-1.3,7.2-1.3h54.6c3.3,0,5.7,0.7,7.4,2.2c1.6,1.5,2.4,3.4,2.4,5.7c0,2.4-0.8,4.4-2.4,5.8
		C504.3,207.7,501.9,208.4,498.6,208.4z"/>
	<rect id="_x3C_Slice_x3E_" x="29.9" y="170" fill="none" width="508" height="228"/>
</g>
</svg>
