<?xml version="1.0" encoding="utf-8"?>
<!-- Generator: Adobe Illustrator 18.1.1, SVG Export Plug-In . SVG Version: 6.00 Build 0)  -->
<svg version="1.1" id="Layer_1" xmlns="http://www.w3.org/2000/svg" xmlns:xlink="http://www.w3.org/1999/xlink" x="0px" y="0px"
	 viewBox="0 0 1600 1440" enable-background="new 0 0 1600 1440" xml:space="preserve">
<g>
	<g id="v_1_">
		<path fill="#212F38" d="M928.6,1293.8c0,0,638-638.6,0-1276.6l-765.9,766L801,1421.6L928.6,1293.8z"/>
	</g>
	<g id="B_x5F_D_1_">
		<g opacity="0.3">
			<path fill="#344A58" d="M992.4,847L801,655.6l199-199C968.3,355.7,906.4,250.3,801,145c-39.8,39.8-510.6,510.6-510.6,510.6
				L801,1166.1C801,1166.2,928.5,1038.5,992.4,847z"/>
			<polygon fill="#344A58" points="614.1,1234.6 162.7,783.3 35,910.9 358.7,1234.6 			"/>
			<path fill="#344A58" d="M1081.1,204.2c292.8,455.3,20.7,878.5-100.8,1030.4h221.2c141.9-219.8,307.4-608.6,90.1-1030.4H1081.1z"
				/>
		</g>
	</g>
</g>
</svg>
