<?xml version="1.0" encoding="utf-8"?>
<!-- Generator: Adobe Illustrator 18.1.1, SVG Export Plug-In . SVG Version: 6.00 Build 0)  -->
<svg version="1.1" xmlns="http://www.w3.org/2000/svg" xmlns:xlink="http://www.w3.org/1999/xlink" x="0px" y="0px"
	 viewBox="0 0 735.9 604.5" enable-background="new 0 0 735.9 604.5" xml:space="preserve">
<g id="Layer_1" display="none">
	
		<image display="inline" overflow="visible" width="347" height="283" xlink:href="../../../../BEL-XX-624411_comp_2.jpg"  transform="matrix(2.1208 0 0 2.1208 0 4.3076)">
	</image>
	
		<image display="inline" overflow="visible" width="512" height="512" xlink:href="../../../../usuarios.png"  transform="matrix(0.3298 0 0 0.3298 352.7317 0)">
	</image>
</g>
<g id="Layer_2">
	<path fill="#FEEBE6" d="M565.6,593l6.4-1.5h4h8.7l6-7.5l8.3,2.5h4.3l7.5-6l9.2,6h5.4l7-9.8l3-14.3l2.5-10.1l-31.2-52.8l-1-13.6
		l4-21.1l18.6-31.2l28.1-36.2l29.6,6.5l22.6-46.2l17.1-2.5l3.5-12.1l-10.6-16.1l2.2-5.7v-8.4c0,0-30.7-14.6-30.7-16.1
		s-1.6-15.1-1.6-15.1l14.3-17.5h-14.3l-28.1-25.9l-24.6-10.9l-40.2-6.5L582,202.5V194l12.1-13.6l7.1-3.5l-4-14.1l8-5.5l0.5-19.6
		l11.6-28.6l-51.8-17.6L557,69.9l-4,3.1l-16.1,2.5l-29.1-2.5l-22.6-17.1L476,39.5V22.7l-8.2-8l-5.7,4l-13.6,18.6l-8.5-2l-16.1-0.5
		l9.1-12.2v-6.9l-4-4.1h-12.7l-18.3,22h-9.3l-8.7-7v-10h-15.4l-14.1,8.9l5.5,11.1v13h-13.5l-4.5-2.6L323,44.5v8.8l-21.9,21.1
		l-13.4,3.5L271.1,99L245,91.5l-2.5-6.5l-42.2-17.1l-17.1,10l-2.5,10.6l-13-10.1l-9-29.2l-44.6,12L6.6,127.6l9.2,22.7l2.5,15.1
		l-3.5,7.5l5,22.1l3.5,10.5H30l11.5,13.2l7.5,14.1l23.1,9l2.5-10.6l22.1-8.5l21.1-0.5l10.6,17.1L143,296l18.6,8l12.1-11.5l5.5,1
		l30.2,20.7l6,46.3H226l0.9-12.2l10.6,4l11.1-1l7.5,5l23.6-9.5l25.1,27.6l5.5-4.5l6,7.5L305.8,399l-2,13.1l6.5,1.5l9,18.1
		l-16.1,10.1l4.5,18.1l46.2,6.5l25.1,0.5l20.9-11.1l4.3-14.6l21.1-34.7l16.4-0.5l-2.7,17.6v6.8l-12.6,29.4l0.5,6.5
		c0,0,13.6,10.6,14.1,12.6c0.5,2-4,6.5-4,6.5l3,26.6l9,1.5l15.1-0.5l9,4.5l10.6,6.4l15.1,19.5H515l28,24.4l13.6,28.6L565.6,593z"/>
	<path fill="#F6503A" d="M501,66.2c-0.3-13.3-10.4-61.9-63.8-61.9S373,54.5,373.7,67.8c0.7,13.3,3.3,44.3,63.5,96.7
		C501,106.2,501.3,79.5,501,66.2z M437.2,104c-20.5,0-37.2-16.6-37.2-37.2s16.6-37.2,37.2-37.2s37.2,16.6,37.2,37.2
		S457.7,104,437.2,104z"/>
</g>
</svg>
