<?xml version="1.0" encoding="utf-8"?>
<!-- Generator: Adobe Illustrator 18.1.1, SVG Export Plug-In . SVG Version: 6.00 Build 0)  -->
<svg version="1.1" id="Layer_1" xmlns="http://www.w3.org/2000/svg" xmlns:xlink="http://www.w3.org/1999/xlink" x="0px" y="0px"
	 viewBox="0 0 80 40" enable-background="new 0 0 80 40" xml:space="preserve">
<rect x="0" y="0" fill="#CD163F" width="40" height="40"/>
<g>
	<path fill="#FFFFFF" d="M18.1,9.7h4l7.8,20.6H25l-1.3-4.2h-7.5l-1.4,4.2h-4.7L18.1,9.7z M17.7,21.9h4.5l-2.3-6.6L17.7,21.9z"/>
</g>
<path fill="#F37920" d="M8.1,26l-2.8,1c-0.7,0.2-1.4-0.1-1.6-0.8l0-0.1c-0.2-0.7,0.1-1.4,0.8-1.6l2.8-1c0.7-0.2,1.4,0.1,1.6,0.8
	l0,0.1C9.1,25,8.7,25.8,8.1,26z"/>
<path fill="#F37920" d="M34.5,27l-2.7-1c-0.7-0.2-1-1-0.8-1.7l0-0.1c0.2-0.7,1-1,1.7-0.8l2.7,1c0.7,0.2,1,1,0.8,1.7l0,0.1
	C35.9,26.9,35.2,27.3,34.5,27z"/>
<path fill="#F37920" d="M36.2,19.3l-4.3,1.4c-0.7,0.2-1.4-0.1-1.6-0.8l0-0.1c-0.2-0.7,0.1-1.4,0.8-1.6l4.3-1.4
	c0.7-0.2,1.4,0.1,1.6,0.8l0,0.1C37.2,18.3,36.9,19.1,36.2,19.3z"/>
<path fill="#F37920" d="M8,20.7l-4.3-1.4c-0.7-0.2-1.1-0.9-0.8-1.6l0-0.1c0.2-0.7,0.9-1.1,1.6-0.8l4.3,1.4c0.7,0.2,1.1,0.9,0.8,1.6
	l0,0.1C9.4,20.5,8.6,20.9,8,20.7z"/>
<path fill="#F37920" d="M10,15.7l-1.7-2.2c-0.4-0.6-0.3-1.4,0.2-1.8l0.1-0.1c0.6-0.4,1.4-0.3,1.8,0.2l1.7,2.2
	c0.4,0.6,0.3,1.4-0.2,1.8l-0.1,0.1C11.3,16.3,10.5,16.2,10,15.7z"/>
<path fill="#F37920" d="M27.8,14.1l1.7-2.2c0.4-0.6,1.2-0.7,1.8-0.2l0.1,0.1c0.6,0.4,0.7,1.2,0.2,1.8L30,15.7
	c-0.4,0.6-1.2,0.7-1.8,0.2l-0.1-0.1C27.5,15.4,27.4,14.6,27.8,14.1z"/>
<polyline fill="#FFFFFF" points="42.8,10.8 45.5,10.8 45.5,5 47.4,10.8 50.5,10.8 52.5,5.1 52.5,10.8 55.5,10.8 55.5,3 50.7,3 
	49.1,8.3 47.6,3.1 42.8,3.1 42.8,10.8 "/>
<polyline fill="#FFFFFF" points="42.8,37 45.5,37 45.5,31.2 47.4,37 50.5,37 52.5,31.3 52.5,37 55.5,37 55.5,29.3 50.7,29.3 
	49.1,34.5 47.6,29.3 42.8,29.3 42.8,37 "/>
<rect x="57.5" y="3" fill="#FFFFFF" width="3.3" height="7.8"/>
<path fill="#FFFFFF" d="M62.7,3"/>
<path fill="#FFFFFF" d="M67.3,3c-1.1,0-4.6,0-4.6,0l0,7.7h5.1c2,0,4.5-0.4,4.5-3.9S69,3,67.3,3z M67.1,9c-0.4,0-1.2,0-1.2,0V4.8
	c0,0,0.3,0,1.2,0c0.9,0,2,0.5,2,2.1S67.8,9,67.1,9z"/>
<path fill="#FFFFFF" d="M47.3,11.8c-1.1,0-4.6,0-4.6,0l0,7.7h5.1c2,0,4.5-0.4,4.5-3.9S49,11.8,47.3,11.8z M47.1,17.7
	c-0.4,0-1.2,0-1.2,0v-4.2c0,0,0.3,0,1.2,0c0.9,0,2,0.5,2,2.1C49.1,17.3,47.9,17.7,47.1,17.7z"/>
<polygon fill="#FFFFFF" points="60.7,13.4 60.7,11.8 56.8,11.8 53.8,11.8 53.8,13.4 53.8,14.9 53.8,16.5 53.8,17.9 53.8,19.5 
	53.8,19.5 60.7,19.5 60.7,17.9 56.8,17.9 56.8,16.5 60.5,16.5 60.5,14.9 56.8,14.9 56.8,13.4 "/>
<polygon fill="#FFFFFF" points="60.7,22.2 60.7,20.6 56.8,20.6 53.8,20.6 53.8,22.2 53.8,23.7 53.8,25.3 53.8,26.7 53.8,28.3 
	53.8,28.3 60.7,28.3 60.7,26.7 56.8,26.7 56.8,25.3 60.5,25.3 60.5,23.7 56.8,23.7 56.8,22.2 "/>
<polygon fill="#FFFFFF" points="65.9,17.6 65.9,11.8 62.7,11.8 62.7,19.5 65.9,19.5 69.3,19.5 69.3,17.6 "/>
<rect x="62.7" y="20.6" fill="#FFFFFF" width="3.2" height="7.8"/>
<polygon fill="#FFFFFF" points="49.1,20.6 49.1,23.3 46,23.3 46,20.5 42.8,20.5 42.8,28.3 46,28.3 46,25.3 49.1,25.3 49.1,28.3 
	52.3,28.3 52.3,20.6 "/>
<rect x="74" y="3" fill="#FFFFFF" width="3.3" height="34"/>
<rect x="56.6" y="33.4" fill="none" width="17.2" height="4.5"/>
<text transform="matrix(1 0 0 1 56.6094 36.9629)" fill="#FFFFFF" font-family="'Helvetica'" font-size="5.0009">useum</text>
</svg>
