<?xml version="1.0" encoding="utf-8"?>
<!-- Generator: Adobe Illustrator 18.1.1, SVG Export Plug-In . SVG Version: 6.00 Build 0)  -->
<svg version="1.1" id="Layer_1" xmlns="http://www.w3.org/2000/svg" xmlns:xlink="http://www.w3.org/1999/xlink" x="0px" y="0px"
	 viewBox="0 0 207 410" enable-background="new 0 0 207 410" xml:space="preserve">
<path fill="#FEEBE6" d="M207,30c0-16.6-13.4-30-30-30H30C13.4,0,0,13.4,0,30v350c0,16.6,13.4,30,30,30h147c16.6,0,30-13.4,30-30V30z
	 M128,39c0,1.7-1.3,3-3,3H83c-1.7,0-3-1.3-3-3v-3c0-1.7,1.3-3,3-3h42c1.7,0,3,1.3,3,3V39z M103,390.8c-10.1,0-18.3-8.2-18.3-18.3
	c0-10.1,8.2-18.3,18.3-18.3s18.3,8.2,18.3,18.3C121.3,382.6,113.1,390.8,103,390.8z M186,327H20V72h166V327z"/>
</svg>
