<?xml version="1.0" encoding="utf-8"?>
<!-- Generator: Adobe Illustrator 18.1.1, SVG Export Plug-In . SVG Version: 6.00 Build 0)  -->
<svg version="1.1" id="twitter" xmlns="http://www.w3.org/2000/svg" xmlns:xlink="http://www.w3.org/1999/xlink" x="0px" y="0px"
	 viewBox="100 0 600 600" enable-background="new 100 0 600 600" xml:space="preserve">
<path fill="#FEEBE6" d="M100,0v600h600V0H100z M516.9,239.7c0.1,2.6,0.2,5.2,0.2,7.9c0,80.2-60.7,172.6-171.6,172.6
	c-34.1,0-65.8-10-92.5-27.3c4.7,0.6,9.5,0.8,14.4,0.8c28.3,0,54.3-9.7,74.9-26c-26.4-0.5-48.7-18-56.3-42.1
	c3.7,0.7,7.5,1.1,11.3,1.1c5.5,0,10.8-0.7,15.9-2.1c-27.6-5.6-48.4-30.1-48.4-59.5c0-0.3,0-0.5,0-0.8c8.1,4.5,17.4,7.3,27.3,7.6
	c-16.2-10.9-26.8-29.5-26.8-50.5c0-11.1,3-21.5,8.2-30.5c29.8,36.7,74.2,60.9,124.3,63.4c-1-4.4-1.6-9.1-1.6-13.8
	c0-33.5,27-60.7,60.3-60.7c17.3,0,33,7.4,44,19.2c13.7-2.7,26.6-7.8,38.3-14.7c-4.5,14.2-14.1,26.1-26.5,33.6
	c12.2-1.5,23.8-4.7,34.6-9.6C538.9,220.4,528.7,231.1,516.9,239.7z"/>
</svg>
